<mxfile host="app.diagrams.net" modified="2022-12-10T10:41:01.008Z" agent="5.0 (Windows NT 10.0; Win64; x64) AppleWebKit/537.36 (KHTML, like Gecko) Chrome/108.0.0.0 Safari/537.36" version="20.6.0" etag="ZMAlWc2mgv6_DLdLlmzU" type="github">
  <diagram id="G_2vTfYNTk8iiom5HPQH" name="Page-1">
    <mxGraphModel dx="1038" dy="556" grid="1" gridSize="10" guides="1" tooltips="1" connect="1" arrows="1" fold="1" page="1" pageScale="1" pageWidth="850" pageHeight="1100" math="0" shadow="0">
      <root>
        <mxCell id="0" />
        <mxCell id="1" parent="0" />
        <mxCell id="lXK2BUQxWpgN8rOrZi70-1" value="Actor" style="shape=umlActor;verticalLabelPosition=bottom;verticalAlign=top;html=1;" vertex="1" parent="1">
          <mxGeometry x="180" y="150" width="40" height="70" as="geometry" />
        </mxCell>
        <object label="" ZOO="" id="lXK2BUQxWpgN8rOrZi70-5">
          <mxCell style="rounded=0;whiteSpace=wrap;html=1;" vertex="1" parent="1">
            <mxGeometry x="280" y="10" width="270" height="460" as="geometry" />
          </mxCell>
        </object>
        <mxCell id="lXK2BUQxWpgN8rOrZi70-6" style="edgeStyle=orthogonalEdgeStyle;rounded=0;orthogonalLoop=1;jettySize=auto;html=1;exitX=0.5;exitY=0.5;exitDx=0;exitDy=0;exitPerimeter=0;entryX=0.53;entryY=0.743;entryDx=0;entryDy=0;entryPerimeter=0;" edge="1" parent="1" source="lXK2BUQxWpgN8rOrZi70-1" target="lXK2BUQxWpgN8rOrZi70-1">
          <mxGeometry relative="1" as="geometry" />
        </mxCell>
      </root>
    </mxGraphModel>
  </diagram>
</mxfile>
